<svg width="35" height="35" viewBox="0 0 35 35" fill="none" xmlns="http://www.w3.org/2000/svg">
<path d="M32.3859 7.33426C31.0788 5.15585 28.7552 3.70355 26.141 3.70355H8.7137C6.09957 3.70355 3.77597 5.15585 2.46887 7.33426C0.871377 10.2388 0 13.4339 0 16.7741C0 24.7617 3.19505 31.2969 7.26141 31.2969C9.43981 31.2969 11.1826 29.2637 12.4896 25.0521C12.6348 24.4712 13.2157 24.0355 13.9419 24.0355H21.0581C21.639 24.0355 22.2199 24.4712 22.5104 25.0521C23.8174 29.2637 25.5602 31.2969 27.7386 31.2969C31.805 31.2969 35 24.7617 35 16.7741C34.8548 13.4339 33.9834 10.2388 32.3859 7.33426ZM27.5933 28.3924C27.1577 28.3924 26.141 27.2305 25.1245 24.1807C24.5435 22.2928 22.8008 21.131 20.9128 21.131H13.9419C12.0539 21.131 10.3112 22.438 9.73027 24.1807C8.7137 27.2305 7.69706 28.3924 7.26141 28.3924C5.80911 28.3924 2.90459 23.8903 2.90459 16.7741C2.90459 14.0148 3.6307 11.2555 4.9378 8.78662C5.80918 7.47959 7.26147 6.60821 8.71377 6.60821H26.1412C27.5935 6.60821 29.0458 7.47959 29.9171 8.78662C31.2242 11.2555 31.9504 14.0148 31.9504 16.7741C31.9502 23.8903 29.0456 28.3924 27.5933 28.3924Z" fill="white"/>
<path d="M13.1251 13.125H11.6667V11.6667C11.6667 10.7917 11.0834 10.2084 10.2084 10.2084C9.33343 10.2084 8.75012 10.7917 8.75012 11.6667V13.125H7.29181C6.41681 13.125 5.8335 13.7083 5.8335 14.5833C5.8335 15.4583 6.41681 16.0416 7.29181 16.0416H8.75005V17.5C8.75005 18.375 9.33336 18.9583 10.2084 18.9583C11.0834 18.9583 11.6667 18.375 11.6667 17.5V16.0417H13.1251C14.0001 16.0417 14.5834 15.4584 14.5834 14.5834C14.5834 13.7083 14.0001 13.125 13.1251 13.125Z" fill="white"/>
<path d="M26.9792 14.5833C28.1874 14.5833 29.1667 13.6039 29.1667 12.3958C29.1667 11.1877 28.1874 10.2083 26.9792 10.2083C25.7711 10.2083 24.7917 11.1877 24.7917 12.3958C24.7917 13.6039 25.7711 14.5833 26.9792 14.5833Z" fill="white"/>
<path d="M22.6042 18.9583C23.8124 18.9583 24.7917 17.9789 24.7917 16.7708C24.7917 15.5627 23.8124 14.5833 22.6042 14.5833C21.3961 14.5833 20.4167 15.5627 20.4167 16.7708C20.4167 17.9789 21.3961 18.9583 22.6042 18.9583Z" fill="white"/>
</svg>
